<?xml version="1.0" encoding="utf-8"?>
<!-- Svg Vector Icons : http://www.onlinewebfonts.com/icon -->
<!DOCTYPE svg PUBLIC "-//W3C//DTD SVG 1.1//EN" "http://www.w3.org/Graphics/SVG/1.1/DTD/svg11.dtd">
<svg version="1.1" xmlns="http://www.w3.org/2000/svg" xmlns:xlink="http://www.w3.org/1999/xlink" x="0px" y="0px" viewBox="0 0 1000 1000" enable-background="new 0 0 1000 1000" xml:space="preserve">
<metadata> Svg Vector Icons : http://www.onlinewebfonts.com/icon </metadata>
<g><g transform="translate(0.000000,511.000000) scale(0.100000,-0.100000)"><path d="M4643.2,4431.4c-365-136.5-629.6-454.1-696.5-835.8c-19.5-117-25.1-122.6-186.7-183.9C2344.7,2879.5,1322.2,1469.8,1219.1-98.8c-16.7-259.1-16.7-261.9-139.3-409.6c-105.9-128.2-278.6-440.2-323.2-582.3c-11.2-30.7-61.3-50.1-161.6-61.3c-339.9-41.8-515.4-353.8-493.1-866.5c19.5-426.3,167.2-663.1,456.9-727.2l125.4-27.9l78-225.7c186.7-540.5,618.5-975.1,1167.4-1170.1c206.2-72.5,242.4-75.2,858.1-89.2c732.7-11.2,858.1,2.8,1156.2,153.2c203.4,100.3,495.9,365,741.1,663.1l111.4,139.3h203.4h203.4l111.4-139.3c214.5-261.9,534.9-557.2,702.1-646.4c320.4-167.2,415.1-181.1,1164.6-169.9l674.2,11.1l231.3,86.4c573.9,220.1,1003,668.7,1178.5,1234.2c44.6,147.6,50.2,153.2,172.8,181.1c289.8,64.1,437.4,295.3,459.7,724.4c25.1,512.6-153.2,827.5-493.2,869.3c-100.3,11.2-150.4,30.6-161.6,61.3c-41.8,133.7-220.1,456.9-326,585.1c-117,142.1-119.8,150.4-136.5,406.7C8677.4,1467,7654.9,2879.5,6242.4,3411.7l-167.2,64.1l-30.7,147.7c-66.8,334.3-289.7,621.3-590.6,766.2C5236.6,4492.7,4866,4512.2,4643.2,4431.4z M5300.7,3985.6c108.7-55.7,211.7-164.4,284.2-303.7c16.7-36.2,27.9-72.4,19.5-78c-8.4-8.4-144.9,0-309.3,16.7c-211.7,22.3-378.9,22.3-590.6,0c-164.4-16.7-303.7-25.1-309.3-16.7c-8.3,8.4,16.7,69.6,58.5,139.3C4626.4,4038.5,4991.4,4141.6,5300.7,3985.6z M5576.5,3149.8c1432-281.4,2515.8-1473.8,2752.6-3034l19.5-117l-164.4,97.5C7214.7,673,5286.7,904.2,3551,650.7c-621.3-91.9-1345.7-323.2-1732.9-554.4L1653.7-1.3l16.7,133.7c11.1,72.4,50.1,250.7,86.4,395.6C2205.4,2327.9,3885.4,3481.3,5576.5,3149.8z M5612.7,302.4c1911.2-133.7,3064.7-746.7,3273.6-1738.5c47.4-231.2,55.7-955.6,11.2-1200.8c-75.2-412.3-401.2-852.5-771.7-1039.2c-295.4-147.7-476.5-175.5-1106.1-164.4c-532.1,8.3-562.8,11.2-710.4,80.8c-203.3,97.5-362.2,231.2-596.2,515.4c-250.7,303.7-404,387.2-713.2,387.2c-289.7,0-476.4-91.9-663.1-328.7c-211.7-264.7-459.7-487.6-638-571.1c-153.2-72.4-183.9-75.2-682.6-83.6c-638-13.9-841.4,16.7-1136.7,164.4c-381.7,192.2-679.8,576.7-769,997.4c-52.9,250.7-50.1,986.2,2.8,1242.6c66.9,312,186.7,526.6,443,782.9C1904.5-307.7,2369.7-70.9,3030,96.3C3829.6,296.9,4710,369.3,5612.7,302.4z M653.5-1954.3c0-275.8-8.3-362.2-33.4-353.8c-94.7,33.4-130.9,445.8-52.9,643.6C628.5-1505.7,653.5-1586.5,653.5-1954.3z M9449.1-1717.5c61.3-200.6,19.5-560-69.6-590.6c-25.1-8.3-33.5,78-33.5,356.6s8.4,365,33.5,356.6C9399-1603.3,9429.6-1656.2,9449.1-1717.5z"/><path d="M3913.2-15.2c-1535.1-189.4-2415.5-730-2535.3-1560.2c-33.4-242.4-36.2-724.4,0-955.6c72.4-515.4,470.8-919.4,986.3-1011.3c108.7-16.7,370.6-27.9,638-22.3c429.1,11.1,459.7,13.9,612.9,89.1c111.4,55.7,206.2,133.8,320.4,264.7c468.1,543.3,612.9,629.7,1064.3,629.7c451.4,0,596.2-86.4,1064.3-629.7c114.2-130.9,209-209,320.4-264.7c153.2-75.2,181.1-78,624-86.4c256.3-5.6,535,2.8,624.1,19.5c523.8,97.5,916.6,498.7,989,1011.3c33.5,231.2,33.5,710.4,0,955.6c-75.2,534.9-498.7,977.9-1184.1,1242.6C7153.4-221.3,6677-101.6,6292.5-40.3C5869,23.8,4364.6,40.5,3913.2-15.2z M6256.3-472.1C7340-639.3,7997.5-987.5,8164.7-1483.5c33.5-108.6,41.8-231.2,33.5-629.6c-8.4-479.2-11.2-495.9-83.6-621.3c-89.2-150.5-214.6-264.7-370.6-334.3c-94.7-44.6-189.4-52.9-638-52.9h-526.5l-156,164.4c-86.4,89.2-236.8,250.8-337.1,356.6c-295.3,312.1-632.4,454.1-1086.5,454.1c-454.1,0-791.2-142.1-1086.6-454.1c-100.3-105.9-250.7-267.5-337.1-356.6l-156-164.4h-526.6c-448.6,0-543.3,8.3-638,52.9c-156,69.6-281.4,183.9-370.5,334.3c-72.4,125.4-75.2,142.1-83.6,629.6c-8.4,462.5-5.6,515.4,50.1,665.9C2049.3-909.5,2871.2-550.1,4164-422C4615.3-377.4,5818.9-405.2,6256.3-472.1z"/><path d="M2392-1313.5c-142.1-139.3-264.7-284.2-273-320.4c-25.1-91.9,52.9-228.5,136.5-250.7c122.6-30.7,192.2,11.1,440.2,261.9c273,281.4,303.7,365,172.7,493.1C2748.6-1007,2679-1032.1,2392-1313.5z"/><path d="M3071.8-1611.6c-599-599-621.3-635.2-482-771.7c139.3-142.1,175.5-119.8,774.5,482c596.2,599,618.5,635.2,479.2,771.7C3707.1-990.3,3670.8-1012.6,3071.8-1611.6z"/></g></g>
</svg>